<?xml version="1.0" standalone="no"?>
<!DOCTYPE svg PUBLIC "-//W3C//DTD SVG 20010904//EN"
 "http://www.w3.org/TR/2001/REC-SVG-20010904/DTD/svg10.dtd">
<svg version="1.0" xmlns="http://www.w3.org/2000/svg"
 width="700.000000pt" height="700.000000pt" viewBox="0 0 700.000000 700.000000"
 preserveAspectRatio="xMidYMid meet">
<metadata>
Created by potrace 1.11, written by Peter Selinger 2001-2013
</metadata>
<g transform="translate(0.000000,700.000000) scale(0.100000,-0.100000)"
fill="#000000" stroke="none">
<path d="M930 6638 c-225 -29 -417 -176 -485 -374 l-24 -69 0 -1374 c-1 -1105
1 -1372 11 -1364 29 21 801 501 866 538 29 17 94 57 147 90 28 18 140 87 250
155 110 67 263 162 340 210 77 48 295 183 485 300 190 117 356 220 370 228 14
9 62 39 107 67 46 27 268 165 494 305 460 284 464 287 744 460 110 67 223 137
250 155 28 17 163 101 300 185 138 85 260 161 272 170 21 16 20 17 -55 50
-292 127 -483 197 -592 217 -14 2 -41 8 -60 13 -19 4 -64 11 -100 15 -36 3
-78 8 -95 11 -27 4 -1051 11 -2635 17 -295 1 -560 -1 -590 -5z"/>
<path d="M4965 5773 c-269 -166 -497 -306 -505 -311 -48 -23 -180 -108 -180
-116 0 -6 17 -30 38 -55 152 -181 339 -529 448 -831 32 -88 96 -303 108 -360
37 -176 55 -274 60 -315 4 -27 9 -66 11 -85 21 -155 28 -537 12 -700 -19 -200
-121 -615 -187 -765 -5 -11 -30 -69 -56 -130 -92 -217 -191 -400 -327 -605
-38 -58 -80 -117 -94 -131 -19 -20 -21 -28 -11 -36 10 -9 532 -316 693 -408
22 -13 110 -64 194 -114 85 -50 158 -91 163 -91 24 0 277 288 422 481 47 63
91 120 96 126 25 31 183 278 240 378 240 416 407 896 445 1281 4 32 8 73 10
89 5 34 5 386 1 455 -7 115 -18 247 -21 269 -4 24 -12 82 -21 151 -2 19 -6 46
-9 60 -2 14 -7 39 -10 55 -5 33 -22 127 -29 163 -27 135 -125 465 -181 607
-142 360 -324 680 -542 952 -69 85 -228 254 -263 279 -12 9 -119 -54 -505
-293z"/>
<path d="M3530 4890 c-206 -126 -393 -240 -415 -254 -93 -61 -218 -136 -224
-136 -3 -1 -17 -9 -29 -20 l-24 -20 35 -47 c106 -147 231 -478 262 -698 3 -22
7 -49 10 -60 20 -103 28 -532 12 -665 -39 -320 -131 -584 -265 -762 -29 -39
-52 -71 -50 -73 2 -1 116 -64 253 -140 138 -76 264 -146 280 -156 17 -9 50
-28 75 -42 25 -13 139 -76 253 -140 115 -65 212 -117 216 -117 21 0 259 387
352 571 77 155 177 414 193 503 3 14 7 29 10 34 3 5 7 20 10 34 2 13 13 72 25
129 36 181 46 287 46 494 0 148 -8 280 -21 365 -38 250 -83 440 -150 627 -50
142 -57 158 -126 298 -52 107 -132 241 -194 327 -68 95 -137 178 -148 178 -6
0 -180 -103 -386 -230z"/>
<path d="M2335 4149 c-77 -49 -147 -92 -155 -97 -9 -4 -66 -38 -128 -77 -62
-38 -146 -90 -186 -115 -116 -71 -515 -318 -633 -392 -60 -37 -124 -77 -143
-87 -19 -11 -66 -40 -103 -64 l-69 -44 139 -80 c76 -44 154 -90 173 -101 156
-89 208 -118 225 -129 11 -7 27 -15 35 -19 8 -4 43 -25 78 -46 34 -21 64 -38
66 -38 2 0 64 -35 137 -78 306 -179 717 -412 725 -412 33 1 163 258 189 373 2
12 12 54 20 92 56 246 58 612 5 875 -6 30 -13 66 -16 80 -3 14 -8 34 -11 45
-4 11 -8 26 -9 32 -16 93 -164 376 -193 372 -3 0 -69 -41 -146 -90z"/>
<path d="M423 1909 c3 -1277 -2 -1183 62 -1310 58 -116 128 -183 254 -247 l94
-47 1581 0 c1395 0 1638 3 1738 20 13 2 66 11 118 19 99 16 103 17 185 36 68
15 283 79 320 95 17 7 45 18 63 25 17 7 32 15 32 19 0 3 -44 31 -97 61 -142
80 -184 104 -297 169 -55 32 -117 68 -136 79 -19 10 -75 43 -125 72 -49 29
-124 71 -165 95 -65 37 -198 112 -310 178 -19 11 -55 31 -80 45 -25 13 -70 39
-100 57 -30 18 -161 93 -290 167 -129 74 -342 197 -473 272 -131 75 -254 146
-273 157 -19 10 -141 81 -272 156 -130 75 -257 147 -282 161 -25 14 -49 28
-55 32 -5 5 -30 19 -55 32 -25 14 -121 69 -215 123 -93 54 -188 109 -210 121
-22 12 -143 81 -270 154 -615 354 -712 409 -728 416 -17 6 -17 -54 -14 -1157z"/>
</g>
</svg>
