<svg id="レイヤー_1" data-name="レイヤー 1" xmlns="http://www.w3.org/2000/svg" viewBox="0 0 273 298.5"><defs><style>.cls-1{fill:#fff;}.cls-2{fill:#0855b2;}.cls-3{isolation:isolate;}.cls-4{fill:#f0f2ff;}.cls-5{fill:none;stroke:#fff;}</style></defs><rect class="cls-1" x="40.85" width="232.15" height="298.5"/><polygon class="cls-2" points="66.8 25.5 66.8 88.65 0 88.65 0 298.5 200 298.5 200 228.5 273 228.5 273 25.5 66.8 25.5"/><rect class="cls-2" x="213.5" y="241.5" width="39" height="39"/><g class="cls-3"><path class="cls-4" d="M75.06,172.4H57.12L53.25,181H49.71l14.72-32.2h3.36L82.51,181H78.92Zm-1.24-2.76-7.73-17.3-7.73,17.3Z"/><path class="cls-4" d="M120,168.9c0,7.31-5.15,12.33-12,12.33a10.49,10.49,0,0,1-9.34-5V181H95.43V146.86H98.7V161.4a10.56,10.56,0,0,1,9.2-4.78C114.8,156.62,120,161.59,120,168.9Zm-3.26,0c0-5.66-3.91-9.43-9-9.43s-9,3.77-9,9.43,3.87,9.43,9,9.43S116.69,174.56,116.69,168.9Z"/><path class="cls-4" d="M132.46,168.9a12.31,12.31,0,1,1,12.33,12.33A11.9,11.9,0,0,1,132.46,168.9Zm21.3,0c0-5.66-3.81-9.43-9-9.43s-9,3.77-9,9.43,3.86,9.43,9,9.43S153.76,174.56,153.76,168.9Z"/><path class="cls-4" d="M193.83,156.8V181H190.7v-4.42a9.61,9.61,0,0,1-8.69,4.65c-6.17,0-10.22-3.45-10.22-10.4v-14h3.27v13.71c0,5.15,2.67,7.78,7.27,7.78,5.06,0,8.23-3.27,8.23-8.79V156.8Z"/><path class="cls-4" d="M224,179.53a7.76,7.76,0,0,1-5.1,1.7c-4.56,0-7.09-2.58-7.09-7V159.56h-4.32V156.8h4.32v-5.29h3.27v5.29h7.36v2.76h-7.36V174c0,2.85,1.47,4.41,4.19,4.41a5.38,5.38,0,0,0,3.58-1.24Z"/></g><g class="cls-3"><path class="cls-5" d="M75.06,172.4H57.12L53.25,181H49.71l14.72-32.2h3.36L82.51,181H78.92Zm-1.24-2.76-7.73-17.3-7.73,17.3Z"/><path class="cls-5" d="M120,168.9c0,7.31-5.15,12.33-12,12.33a10.49,10.49,0,0,1-9.34-5V181H95.43V146.86H98.7V161.4a10.56,10.56,0,0,1,9.2-4.78C114.8,156.62,120,161.59,120,168.9Zm-3.26,0c0-5.66-3.91-9.43-9-9.43s-9,3.77-9,9.43,3.87,9.43,9,9.43S116.69,174.56,116.69,168.9Z"/><path class="cls-5" d="M132.46,168.9a12.31,12.31,0,1,1,12.33,12.33A11.9,11.9,0,0,1,132.46,168.9Zm21.3,0c0-5.66-3.81-9.43-9-9.43s-9,3.77-9,9.43,3.86,9.43,9,9.43S153.76,174.56,153.76,168.9Z"/><path class="cls-5" d="M193.83,156.8V181H190.7v-4.42a9.61,9.61,0,0,1-8.69,4.65c-6.17,0-10.22-3.45-10.22-10.4v-14h3.27v13.71c0,5.15,2.67,7.78,7.27,7.78,5.06,0,8.23-3.27,8.23-8.79V156.8Z"/><path class="cls-5" d="M224,179.53a7.76,7.76,0,0,1-5.1,1.7c-4.56,0-7.09-2.58-7.09-7V159.56h-4.32V156.8h4.32v-5.29h3.27v5.29h7.36v2.76h-7.36V174c0,2.85,1.47,4.41,4.19,4.41a5.38,5.38,0,0,0,3.58-1.24Z"/></g></svg>