<svg xmlns="http://www.w3.org/2000/svg" viewBox="0 0 1000 1000"><defs><style>.cls-1{fill:#0855b2;}.cls-2{fill:#fff;}</style></defs><g id="レイヤー_2" data-name="レイヤー 2"><rect class="cls-1" width="1000" height="1000"/></g><g id="レイヤー_1" data-name="レイヤー 1"><path class="cls-2" d="M225,776.85V713.79a82.44,82.44,0,0,1-6.51,7.45l-7.07-13.58c16.37-16.74,25.3-40,26.23-66.22H212.56V626.19H271v15.25H253.49a117.67,117.67,0,0,1-11.16,45.94h35v89.47Zm39.06-74.4H238.23V761.6h25.86Zm102.49,8.93v79.24H351V711.38h-29c-.93,23.81-7.82,43.34-17.12,56l-13-9.31c7.07-9.48,13.95-25.48,14.7-46.68H292V695.94h14.69V641.81H295.34V626.19H377v15.62H366.58v54.13h13.95v15.44ZM351,641.81h-29v54.13h29Z"/><path class="cls-2" d="M545.12,669V646.65H502.89v25.29c0,4.65,3,8.37,7.82,8.37h29.2v14.51H507.73c-11.53,0-20.46-8.18-20.46-20.64V646.65h-24c-3.54,28.64-19,43-47.62,48.73l-3.91-14c22.88-3.72,33.11-14.69,35.53-34.78H409V669H393.15V632H469V623h16.18V632h75.89v37ZM527.45,788.38c-10.79,0-19.35-6.51-19.35-19.34V728.3H458.81c-6.32,30.51-22.69,48.74-51.71,58.6l-5-14.51c22.51-7.44,35-20.28,40.36-44.09H404.13V712.87h40.92c.56-6.14.74-12.65.74-20.09H462a168.3,168.3,0,0,1-.93,20.09h63.8v52.26c0,4.47,2.42,7.26,7.26,7.26h14.32v16Z"/><path class="cls-2" d="M626.38,738.16l-16.56,34.6c55.25,0,78.68-.93,101.38-8.93l-6.89-14.69,15.63-5,19.34,42-15.44,5-6.51-13.95C691.85,787.64,663,788.38,603.5,788.38H573.74V772.76c6,0,11.53,0,16.93.19L607,738.16H573.74V723.47H741.52v14.69Zm109.74-55c-32.92-5.58-61.57-21.58-78.49-47.06-17.49,25.11-45.39,41.1-78.31,47.24l-3.72-15.62c31.25-5.21,57.1-19.91,71.24-44.64H668.6c13.95,24.73,39.62,39.8,71.06,44.64ZM624,697.61V682.92h67.89v14.69Z"/><path class="cls-2" d="M270.55,536.53,242.47,514.4c-19,29.39-50,48.92-91.89,53L147.23,551c38-3.53,65.48-20.46,82-47.24l-40-32,9.86-12.09,37.76,29.39c6.88-16.37,10.41-35.34,10.41-56.54V409.12h17.3v23.81c0,24.74-4.84,47.43-14,66.77l30.51,23.63Z"/><path class="cls-2" d="M427.44,485.57V498.4c0,38.51-25.29,67-74.4,69.75l-2.6-16.36c41.48-2.42,59-23.44,59-53.39V485.57H315.66V469.2H468.37v16.37Zm-83.88-54.69V414.51h97.09v16.37Zm120.71-10.23-5.76-13.39,12.83-5.21,5.77,13.39Zm.19,28.65-5.77-13.21,13-5.21,5.58,13.4Z"/><path class="cls-2" d="M572.77,494.12v77H557.88V499c-3,.93-6.32,1.49-9.67,2.23l-38.69,8.56-2.41-14.14,38.13-8.55c24.36-5.4,40.36-14.51,46.31-32l14.14,5.4C600.48,477.2,589.13,487.43,572.77,494.12Z"/><path class="cls-2" d="M651.07,570.2l-2.42-16.55c38.32-3.17,58.41-25.67,58.41-61.39V467.53H724v24.92C724,537.65,697.38,566.85,651.07,570.2ZM772.9,512.72,763,498.59c20.46-7.26,31.07-24,31.07-50.41V430.51h-90V413.58H811.59v35C811.59,480.55,797.08,502.12,772.9,512.72Z"/><path class="cls-2" d="M418.47,345.51H393.36L364,226.28l-30.5,119.23H308.73l-24-151.6h16.56l21.58,141,32.36-127.22h17.48l31.81,126.67,22-140.44H443Z"/><path class="cls-2" d="M456,345.51V193.91h93v16H472.22V259h69.57v15.62H472.22V329.7h99.14v15.81Z"/><path class="cls-2" d="M662.15,345.51H622V329.88h39.62c22.69,0,31.06-10.23,31.06-24.18v-5.21c0-18.78-11.16-26.59-45-26.59H632.57V259h17.49c29.76,0,39.62-8.19,39.62-21.77v-4.83c0-16-10.61-22.51-32.56-22.51H600.77v89.65h-16V193.91h72.91c30.32,0,48.92,9.49,48.92,37.39v5.21c0,13-5.58,23.43-19.9,29.57,14.14,5.58,22.88,16.19,22.88,34.79v5C709.58,329.14,697.67,345.51,662.15,345.51Z"/><polygon class="cls-2" points="156.5 241 120 241 120 299 178 299 178 261.5 156.5 261.5 156.5 241"/><rect class="cls-2" x="159.5" y="191.5" width="67" height="67"/><polygon class="cls-2" points="904 687 846 687 846 724.5 867.5 724.5 867.5 745 904 745 904 687"/><rect class="cls-2" x="797.5" y="727.5" width="67" height="67"/></g></svg>