<svg id="レイヤー_1" data-name="レイヤー 1" xmlns="http://www.w3.org/2000/svg" viewBox="0 0 371.83 86.92"><defs><style>.cls-1{fill:#4d4d4d;}.cls-2{fill:#c95c53;}.cls-3{fill:#f4d24b;}.cls-4{opacity:0.9;}.cls-5,.cls-6{fill:#f2f0ed;}.cls-6{fill-rule:evenodd;}.cls-7{fill:#323333;}</style></defs><rect class="cls-1" x="1.93" y="38.09" width="46.33" height="1.96" transform="translate(-20.73 46.61) rotate(-66.64)"/><rect class="cls-1" x="44.45" y="48.66" width="23.2" height="1.96" transform="translate(-11.47 82.01) rotate(-67.14)"/><polygon class="cls-2" points="56.85 82.7 55.04 81.96 72.81 38.25 74.69 38.48 77.75 59.58 75.81 59.87 73.27 42.32 56.85 82.7"/><rect class="cls-2" x="59.89" y="48.55" width="14.88" height="1.96"/><polygon class="cls-3" points="81.11 60.13 97.2 17.6 108.37 39.23 81.11 60.13"/><path class="cls-3" d="M81.71,60.9l-1.52-1.12,16.1-42.52,1.78-.11,11.17,21.63L109,40ZM97.34,20,83.24,57.26,107.12,39Z"/><polygon class="cls-1" points="124.83 61.3 123.03 60.52 132.29 39.17 134.01 39.03 138.46 45.86 141.53 38.9 143.18 38.67 150.4 47.41 150.55 48.42 145.24 60.7 143.44 59.92 148.51 48.19 142.68 41.14 139.52 48.3 137.81 48.44 133.37 41.62 124.83 61.3"/><g class="cls-4"><rect class="cls-5" x="126.39" y="48.88" width="23" height="1.96" transform="translate(37.67 156.9) rotate(-66.76)"/></g><polygon class="cls-6" points="182.01 43.26 184.16 43.77 184.77 41.04 182.62 40.58 182.01 43.26"/><path class="cls-6" d="M180.68,47.89l2,.85.22-.57c.27-.79.47-1.49.67-2.24l-2.12-.57c-.19.7-.4,1.41-.63,2.07Z"/><path class="cls-6" d="M178.32,52.06l1.85,1.19c.51-.79,1-1.59,1.47-2.42l-1.91-1.09C179.28,50.52,178.81,51.3,178.32,52.06Z"/><polygon class="cls-6" points="217.98 43.31 220.12 43.82 220.74 41.09 218.59 40.63 217.98 43.31"/><path class="cls-6" d="M216.64,47.94l2,.85.22-.57c.27-.79.47-1.49.67-2.23l-2.12-.58c-.2.7-.4,1.41-.63,2.07Z"/><path class="cls-6" d="M214.28,52.12l1.86,1.18c.5-.79,1-1.59,1.47-2.42l-1.91-1.09C215.25,50.57,214.77,51.35,214.28,52.12Z"/><ellipse class="cls-7" cx="161.89" cy="45.49" rx="4.31" ry="7.14"/><ellipse class="cls-7" cx="196.66" cy="45.21" rx="4.31" ry="7.14"/><rect class="cls-3" x="225.84" y="37.97" width="24.48" height="1.96"/><polygon class="cls-1" points="255.13 82.92 171.71 82.92 171.71 80.96 252.78 80.96 243.85 32.01 254.96 32.01 254.96 33.97 246.2 33.97 255.13 82.92"/><path class="cls-2" d="M308.83,59.05a9.73,9.73,0,0,1-4.14-.83c-6.16-2.9-4.59-8.44-4-10.52,1.62-5.71,8.17-11.77,17.18-12,2.88,0,4.83.73,6,2.33,1.86,2.65.47,6.43.41,6.59l-.92.63-19.47.05a10.94,10.94,0,0,0-1.26,2.79c-.91,3.22-1.17,6.38,2.92,8.31,4.92,2.31,13.51-2.26,13.6-2.3l.92,1.72C319.74,56,314.06,59.05,308.83,59.05Zm9.32-21.34h-.24a17.45,17.45,0,0,0-12.57,5.68l17.26,0c.25-1,.54-2.86-.37-4.14C321.53,38.21,320.15,37.71,318.15,37.71Z"/><polygon class="cls-3" points="279.35 58.95 277.96 57.72 280.35 52.27 269.35 58.95 267.95 57.72 277.16 36.38 278.95 37.15 270.96 55.68 281.99 48.98 283.39 50.22 280.97 55.73 291.64 49.43 297.3 36.37 299.1 37.15 293.31 50.5 292.91 50.95 279.35 58.95"/><rect class="cls-3" x="271.95" y="46.42" width="23.18" height="1.96" transform="translate(127.17 288.62) rotate(-66.54)"/><rect class="cls-1" x="345.68" y="16.32" width="1.96" height="1.96" transform="translate(188.71 326.37) rotate(-65.79)"/><path class="cls-1" d="M331.1,54.38l-1.79-.81L330.92,50l1.78.81Zm3.21-7.16-1.79-.81,1.61-3.57,1.78.8Zm3.21-7.16-1.79-.8,1.61-3.58,1.79.8Zm3.21-7.16L339,32.1l1.6-3.58,1.79.81Zm3.21-7.15-1.78-.81,1.6-3.57,1.79.8Z"/><polygon class="cls-1" points="328.5 60.02 326.9 58.94 327.7 57.15 328.29 57.41 328.44 57.25 328.9 57.69 329.49 57.95 329.4 58.16 329.86 58.6 328.5 60.02"/><rect class="cls-1" x="331.41" y="52.39" width="4.2" height="1.96" transform="translate(64.39 257.45) rotate(-46.27)"/><polygon class="cls-1" points="338.58 49.48 337.16 48.13 338.03 47.23 337.45 46.12 339.18 45.2 340.09 46.94 339.93 48.07 338.58 49.48"/><rect class="cls-1" x="335.43" y="41.05" width="1.96" height="1.96" transform="translate(18.95 161) rotate(-27.67)"/><polygon class="cls-1" points="336.46 39.39 326.67 61.19 356.24 38.95 338.08 45.48 336.46 39.39"/><path class="cls-1" d="M327.26,62l-1.48-1.18L335.56,39l1.84.15,1.35,5.06L355.91,38l.92,1.7Zm9-19.66-7.1,15.81,21.36-16.06L338.41,46.4l-1.28-.67Z"/><g class="cls-4"><polygon class="cls-5" points="28.79 60.85 27 60.07 36.26 38.73 38.13 38.99 40.44 56.81 48.22 38.81 50.02 39.59 40.83 60.85 38.96 60.59 36.65 42.76 28.79 60.85"/></g><g class="cls-4"><rect class="cls-5" x="126.31" y="49.01" width="23" height="1.96" transform="translate(37.51 156.91) rotate(-66.76)"/></g><g class="cls-4"><rect class="cls-5" x="217.55" y="46.54" width="28.48" height="1.96" transform="translate(97.1 242.06) rotate(-66.89)"/></g><path class="cls-1" d="M166.74,60.32c-.55,0-1.12,0-1.71,0-3.93-.21-6.82-1.54-8.59-4-2.84-3.9-2.08-9.81-.95-14.08,2.82-10.64,10.07-16.5,20.41-16.5,3.89,0,6.66,1.15,8.25,3.41,2.79,4,.69,9.9.6,10.15l-.92.64H158.28a27.82,27.82,0,0,0-.9,2.8c-1,3.86-1.74,9.15.65,12.42,1.4,1.93,3.79,3,7.1,3.17,9.92.52,12.15-3.94,12.17-4l1.78.81C179,55.36,176.67,60.32,166.74,60.32ZM159.13,38h24c.41-1.48,1.19-5.22-.56-7.71-1.2-1.71-3.43-2.57-6.64-2.57C168.2,27.69,162.38,31.3,159.13,38Z"/><path class="cls-1" d="M201.7,60.32c-.55,0-1.11,0-1.71,0-3.93-.21-6.82-1.54-8.59-4-2.83-3.9-2.08-9.81-1-14.08,2.82-10.64,10.07-16.5,20.41-16.5,3.89,0,6.67,1.15,8.25,3.41,2.79,4,.69,9.9.6,10.15l-.92.64H193.24a27.82,27.82,0,0,0-.9,2.8c-1,3.86-1.74,9.15.65,12.42,1.4,1.93,3.79,3,7.11,3.17,9.92.52,12.14-3.94,12.16-4l1.79.81C214,55.36,211.63,60.32,201.7,60.32ZM194.09,38h24c.41-1.48,1.18-5.22-.57-7.71-1.2-1.71-3.43-2.57-6.64-2.57C203.16,27.69,197.35,31.3,194.09,38Z"/></svg>