<svg id="レイヤー_1" data-name="レイヤー 1" xmlns="http://www.w3.org/2000/svg" viewBox="0 0 156.9 156.88"><defs><style>.cls-1{fill:#f2f0ed;fill-rule:evenodd;}.cls-2{fill:#323333;}.cls-3{fill:#4d4d4d;}</style></defs><polygon class="cls-1" points="68.47 78.85 72.29 79.77 73.39 74.9 69.55 74.08 68.47 78.85"/><path class="cls-1" d="M66.08,87.13l3.63,1.51.39-1c.48-1.41.84-2.67,1.2-4l-3.79-1c-.34,1.25-.71,2.53-1.11,3.7Z"/><path class="cls-1" d="M61.86,94.58l3.32,2.11c.9-1.41,1.78-2.84,2.62-4.32l-3.41-1.94C63.59,91.82,62.74,93.21,61.86,94.58Z"/><polygon class="cls-1" points="132.66 78.94 136.49 79.86 137.59 75 133.75 74.17 132.66 78.94"/><path class="cls-1" d="M130.28,87.22l3.63,1.51.38-1c.49-1.41.85-2.67,1.21-4l-3.79-1c-.34,1.25-.71,2.53-1.12,3.7Z"/><path class="cls-1" d="M126.06,94.67l3.31,2.12c.91-1.42,1.79-2.84,2.63-4.33l-3.42-1.94C127.79,91.92,126.94,93.3,126.06,94.67Z"/><ellipse class="cls-2" cx="32.55" cy="82.83" rx="7.69" ry="12.74"/><ellipse class="cls-2" cx="94.6" cy="82.34" rx="7.69" ry="12.74"/><path class="cls-3" d="M41.19,109.31c-1,0-2,0-3-.09-7-.37-12.18-2.75-15.33-7.07-5.07-7-3.72-17.51-1.7-25.12,5-19,18-29.46,36.43-29.46,6.94,0,11.9,2,14.72,6.1,5,7.13,1.23,17.65,1.07,18.1L71.7,72.92H26.1a49.64,49.64,0,0,0-1.6,5c-1.83,6.89-3.11,16.32,1.15,22.17,2.5,3.43,6.77,5.33,12.69,5.65,17.69.92,21.67-7,21.71-7.11l3.18,1.43C63.06,100.46,58.93,109.3,41.19,109.31ZM27.62,69.42H70.41c.73-2.65,2.11-9.32-1-13.76-2.13-3-6.12-4.59-11.85-4.59C43.81,51.07,33.43,57.51,27.62,69.42Z"/><path class="cls-3" d="M103.6,109.31c-1,0-2,0-3-.09-7-.37-12.18-2.75-15.33-7.07-5.07-7-3.73-17.51-1.71-25.12,5-19,18-29.46,36.44-29.46,6.94,0,11.89,2,14.72,6.1,5,7.13,1.23,17.65,1.06,18.1l-1.64,1.15H88.51a47.22,47.22,0,0,0-1.61,5c-1.82,6.89-3.11,16.32,1.15,22.17,2.5,3.43,6.77,5.33,12.69,5.65,17.71.92,21.68-7,21.71-7.11l3.19,1.43C125.46,100.46,121.33,109.3,103.6,109.31ZM90,69.42h42.79c.74-2.65,2.12-9.32-1-13.76-2.14-3-6.13-4.59-11.85-4.59C106.21,51.07,95.83,57.51,90,69.42Z"/></svg>