<svg id="レイヤー_1" data-name="レイヤー 1" xmlns="http://www.w3.org/2000/svg" viewBox="0 0 64 64"><defs><style>.cls-1{fill:#fff;}</style></defs><path class="cls-1" d="M16.45,32.14V18.8a2.37,2.37,0,0,1,.75-1.86,3,3,0,0,1,2.16-.9l14.94,0a12.16,12.16,0,0,1,1.39.1,8.93,8.93,0,0,1,1.57.32c1,.3,2.69,1.09,2.69,1.09Z"/><path class="cls-1" d="M16.44,34V45.27a3,3,0,0,0,.95,2.1,3.33,3.33,0,0,0,1.31.67H34.3s1.39-.18,1.87-.27A14.27,14.27,0,0,0,38,47.3c.41-.13,1-.36,1-.36Z"/><path class="cls-1" d="M19,33.05l7.91-4.9s1.34,1.34,1.34,4.9c0,3.3-1.28,4.58-1.28,4.58Z"/><path class="cls-1" d="M28.63,27l5.47-3.34a12.18,12.18,0,0,1,2,3.13,15.43,15.43,0,0,1,1.25,6.23,13.75,13.75,0,0,1-1.43,5.72,22.85,22.85,0,0,1-1.79,2.94l-5.47-3.05s1.72-1.56,1.72-5.61S28.63,27,28.63,27Z"/><path class="cls-1" d="M35.87,22.57l6-3.68s5.53,4.51,5.53,14.16c0,7.12-6.15,12.9-6.15,12.9l-5.37-3.14a17.13,17.13,0,0,0,3.53-9.76A16.4,16.4,0,0,0,35.87,22.57Z"/></svg>