<svg id="レイヤー_1" data-name="レイヤー 1" xmlns="http://www.w3.org/2000/svg" viewBox="0 0 400 60"><defs><style>.cls-1{fill:#003299;}.cls-2,.cls-3{fill:#fff;}.cls-3{stroke:#003299;stroke-miterlimit:10;stroke-width:1.5px;}</style></defs><rect class="cls-1" x="10.4" y="10.2" width="201.6" height="40.32"/><path class="cls-2" d="M56,36.55h-1.9l-2.23-9-2.31,9H47.72L45.9,25.05h1.25l1.64,10.69,2.46-9.65h1.32L55,35.7l1.66-10.65h1.26Z"/><path class="cls-2" d="M61.65,32.65v-1h4.77v-.28c0-1.79-1-2.4-2.66-2.4h-1c-1.51,0-2.61.62-2.61,2.33V33c0,1.72,1,2.37,2.61,2.37h2.12v1.15H62.8C60.12,36.55,59,35.16,59,33V31.34c0-2.26,1.55-3.5,3.83-3.5h1c2.56,0,3.86,1.13,3.86,3.57v1.24Z"/><path class="cls-2" d="M73.73,36.55h-.67a3.66,3.66,0,0,1-2.66-1v1H69.17V25.06H70.4v8.42A2.42,2.42,0,0,0,73,35.35h.61A2.31,2.31,0,0,0,76.22,33V31.44a2.3,2.3,0,0,0-2.59-2.36H71.86V27.87h1.87c2.3,0,3.74,1.18,3.74,3.46V33.1C77.47,35.29,76,36.55,73.73,36.55Z"/><path class="cls-2" d="M89,34.36l-2.13-1.68a9,9,0,0,1-7,4l-.26-1.24a7.76,7.76,0,0,0,6.22-3.58l-3-2.43.75-.92,2.86,2.23a10.87,10.87,0,0,0,.79-4.29V24.69h1.32V26.5a11.83,11.83,0,0,1-1.06,5.06l2.31,1.8Z"/><path class="cls-2" d="M102,30.49v1c0,2.92-1.92,5.08-5.64,5.29l-.2-1.24c3.15-.19,4.47-1.78,4.47-4.05v-1H93.51V29.25H105.1v1.24Zm-6.36-4.15V25.1H103v1.24Zm9.16-.77-.44-1,1-.39.44,1Zm0,2.17-.44-1,1-.4.42,1Z"/><path class="cls-2" d="M114,31.14V37h-1.13V31.51c-.23.07-.48.11-.74.17l-2.93.65L109,31.25l2.89-.64c1.85-.41,3.06-1.11,3.51-2.43l1.08.41A4,4,0,0,1,114,31.14Z"/><path class="cls-2" d="M121.33,36.91l-.19-1.25c2.91-.24,4.43-1.95,4.43-4.66V29.12h1.29V31A5.49,5.49,0,0,1,121.33,36.91Zm9.24-4.36-.75-1.07c1.55-.55,2.36-1.82,2.36-3.82V26.32h-6.83V25h8.15v2.65A4.91,4.91,0,0,1,130.57,32.55Z"/><path class="cls-2" d="M136.14,35.91V31.13a5.17,5.17,0,0,1-.49.56l-.54-1a7.38,7.38,0,0,0,2-5h-1.9V24.48h4.43v1.16H138.3a8.89,8.89,0,0,1-.84,3.48h2.65v6.79Zm3-5.64h-2v4.48h2Zm7.77.67v6H145.7v-6h-2.2a7.81,7.81,0,0,1-1.3,4.25l-1-.7a6.31,6.31,0,0,0,1.11-3.55h-1.1V29.77h1.12v-4.1h-.86V24.48h6.19v1.19h-.79v4.1h1.06v1.17Zm-1.18-5.27h-2.2v4.1h2.2Z"/><path class="cls-2" d="M160.84,27.73V26h-3.2V28a.59.59,0,0,0,.59.64h2.21v1.1H158a1.5,1.5,0,0,1-1.55-1.57V26h-1.82c-.27,2.18-1.44,3.26-3.61,3.7l-.3-1.06a2.77,2.77,0,0,0,2.7-2.64h-2.91v1.7h-1.2V24.92h5.76v-.68h1.23v.68h5.75v2.81Zm-1.34,9.06A1.37,1.37,0,0,1,158,35.32V32.23h-3.74a5.46,5.46,0,0,1-3.92,4.44l-.38-1.1a4.14,4.14,0,0,0,3.06-3.34h-2.91V31.06h3.11c0-.47.05-1,.05-1.53h1.23a12.29,12.29,0,0,1-.07,1.53h4.84v4a.5.5,0,0,0,.55.55h1.09v1.22Z"/><path class="cls-2" d="M167.42,33l-1.26,2.62c4.19,0,6-.07,7.69-.68l-.52-1.11,1.18-.38L176,36.62l-1.17.38-.49-1.06c-1.94.79-4.12.85-8.64.85h-2.26V35.6c.45,0,.88,0,1.29,0L166,33h-2.53V31.86h12.73V33Zm8.32-4.18a8.7,8.7,0,0,1-6-3.57,9.09,9.09,0,0,1-5.94,3.58l-.29-1.18A7.34,7.34,0,0,0,169,24.24h1.65A7.19,7.19,0,0,0,176,27.63Zm-8.51,1.1V28.79h5.15V29.9Z"/><rect class="cls-2" x="18.01" y="30.44" width="10.18" height="10.18"/><rect class="cls-3" x="24.9" y="20.33" width="13.96" height="13.96"/><rect class="cls-2" x="194.21" y="20.33" width="10.18" height="10.18" transform="translate(398.59 50.85) rotate(-180)"/><rect class="cls-3" x="183.54" y="26.66" width="13.96" height="13.96" transform="translate(381.04 67.28) rotate(-180)"/><path d="M223.56,16.36a14,14,0,0,0-.93,3.13,34.59,34.59,0,0,0-.58,6.55c0,.65,0,1.87.14,3.66,0,.27.05.67.05,1.17h.06c0-.17,0-.17.12-.73a17.2,17.2,0,0,1,1.31-3.74l.69.36a19.11,19.11,0,0,0-1.64,5.45.86.86,0,0,0,0,.21l-1.05.13c0-.31-.06-.42-.12-.78a26.54,26.54,0,0,1-.55-5.73,32.93,32.93,0,0,1,1-8.4,7.7,7.7,0,0,0,.29-1.55Zm5.19,8.23a4.56,4.56,0,0,0-1.64,3.15,2.07,2.07,0,0,0,1.15,1.89,7.24,7.24,0,0,0,3.21.59,13.45,13.45,0,0,0,4.73-.71l.19,1.11a5.81,5.81,0,0,0-.67.13,22.29,22.29,0,0,1-4.29.42,7.38,7.38,0,0,1-3.9-.84,2.94,2.94,0,0,1-1.35-2.55c0-1.17.51-2.2,1.81-3.67Zm-2.34-5.88a12.94,12.94,0,0,0,3.47.32,20.2,20.2,0,0,0,5.54-.61l.06,1-.77.12a32.7,32.7,0,0,1-5.08.36,20.07,20.07,0,0,1-3.24-.23Z"/><path d="M247,16.51a7.79,7.79,0,0,0,2-.13,10.94,10.94,0,0,0-.11,1.54,16.07,16.07,0,0,0,2.38,8.18,18.51,18.51,0,0,0,3.21,4,17.83,17.83,0,0,0,3.38,2.48,3.11,3.11,0,0,0-.88.84,19.12,19.12,0,0,1-4.56-4,18.89,18.89,0,0,1-2.81-4.54,17.58,17.58,0,0,1-1.2-3.88,19.46,19.46,0,0,1-2.21,5.9,19.82,19.82,0,0,1-2.66,3.57,20.57,20.57,0,0,1-3.66,3.07,2.74,2.74,0,0,0-.86-.8,16.13,16.13,0,0,0,4.06-3.19A18.35,18.35,0,0,0,247,22.91a16.14,16.14,0,0,0,.95-5.56h-3.42c-.32,0-.76,0-1.41.1V16.4a5.68,5.68,0,0,0,1.41.11Z"/><path d="M263.88,15.65a11.17,11.17,0,0,0-.51,2.29c-.39,2.64-.67,4.85-.75,6.09h.08a2.68,2.68,0,0,0,.17-.68,10.68,10.68,0,0,1,1.26-3.42c1.18-2,2.62-3,4.28-3a3.7,3.7,0,0,1,3.28,1.85,8.64,8.64,0,0,1,1.15,4.89,8.54,8.54,0,0,1-4.59,8.06A14.33,14.33,0,0,1,264.68,33a2.3,2.3,0,0,0-.63-.9,11.33,11.33,0,0,0,4.11-1.41c2.48-1.45,3.68-3.8,3.68-7.24s-1.28-5.61-3.43-5.61c-1.7,0-3.08,1.26-4.3,3.89A10.85,10.85,0,0,0,263,26.36v.58l-1,0V26.8l0-.38,0-2v-.52a51.27,51.27,0,0,1,.75-7.75,4.26,4.26,0,0,0,.07-.65Z"/><path d="M277.8,18.63a26.16,26.16,0,0,0,5.25.4L285,19a24.5,24.5,0,0,0-.08-3.19h1.19A19.07,19.07,0,0,0,286,19a28,28,0,0,0,6.21-.89l.09,1a12.92,12.92,0,0,0-1.35.17,40.38,40.38,0,0,1-4.95.52c0,.49,0,.49.06,3.22a23.82,23.82,0,0,0,5.84-.91l.08,1a9.6,9.6,0,0,0-1.15.17c-1.28.21-3.26.44-4.75.52l.11,3.57A18.4,18.4,0,0,1,292,30.45a6.33,6.33,0,0,0,.72.46l-.59,1a14.39,14.39,0,0,0-2.33-1.87,16,16,0,0,0-3.17-1.63l-.46-.21a4.85,4.85,0,0,1,.08,1.05,3.2,3.2,0,0,1-.69,2.41,4.47,4.47,0,0,1-3.15,1,5.79,5.79,0,0,1-3.17-.82,2.27,2.27,0,0,1-1-2c0-1.82,1.85-3,4.79-3a7.54,7.54,0,0,1,2.2.27c0-.21-.06-1.3-.12-3.31-.95,0-1.92,0-2.57,0a34.36,34.36,0,0,1-3.5-.15l-.48,0h-.19l0-1a21.74,21.74,0,0,0,4.66.36c.59,0,1.38,0,2,0,0-1.87,0-2.94,0-3.23-.69,0-1.09,0-1.59,0-1.54,0-3.61-.09-5-.21a2.71,2.71,0,0,0-.36,0h-.27ZM285.19,28a8,8,0,0,0-2.33-.26c-2.24,0-3.71.84-3.71,2.12s1.28,1.91,3.17,1.91a3.3,3.3,0,0,0,2.47-.79,3,3,0,0,0,.42-2Z"/><path d="M307.54,20.86v-2a16.21,16.21,0,0,0-.11-2.67h1.11a13,13,0,0,0-.06,1.41c0,1.45,0,2.19,0,3.21A42.71,42.71,0,0,0,313,20.6l0,1c-.55,0-.84-.06-1.33-.06l-1.7,0-1.55,0a23.31,23.31,0,0,1-.36,3.89,2.44,2.44,0,0,1-.69,1.55,1.63,1.63,0,0,1-1.15.46,5.81,5.81,0,0,1-2.9-1.09c0-.23,0-.54,0-1a6.21,6.21,0,0,0,2.77,1.19c.61,0,.88-.38,1.07-1.51a27.19,27.19,0,0,0,.3-3.49c-3.74.17-3.74.17-7.19.4v.44c0,1,0,1.66,0,2.19a25.08,25.08,0,0,0,.19,4.58,2,2,0,0,0,1.3,1.53,10.75,10.75,0,0,0,3.45.44,17.75,17.75,0,0,0,5.81-.8l.15,1.09-.78.13a26.73,26.73,0,0,1-5.18.5c-3.21,0-4.92-.63-5.48-2-.36-.84-.42-1.7-.42-4.9,0-.92,0-1.61,0-3.1l-1.41.12a22.3,22.3,0,0,0-2.92.34l-.12-1h.4c.23,0,.23,0,4.05-.29v-2a23.32,23.32,0,0,0-.08-2.66h1.21a32,32,0,0,0-.17,4.55L304,21Z"/><path d="M322.24,16.19c-.28.47-.28.47-2.44,6-.5,1.28-.84,2.08-1.49,3.46l-.59,1.24.11,0a15,15,0,0,1,.9-1.36,4,4,0,0,1,3.19-1.89A2.18,2.18,0,0,1,324.08,25a3.94,3.94,0,0,1,.26,1.76l0,1.89c0,1.26.08,1.68.4,2.1a2.23,2.23,0,0,0,1.76.7c1.62,0,2.81-.91,3.65-2.8a8.76,8.76,0,0,0,.82-2.81,4.65,4.65,0,0,0,.93.84,10.91,10.91,0,0,1-1.39,3.4,4.65,4.65,0,0,1-4,2.31,3,3,0,0,1-2.63-1.2,4,4,0,0,1-.46-2.26c0-.07,0-.07,0-1.47v-.28a8.74,8.74,0,0,0-.08-1.42,1.31,1.31,0,0,0-1.43-1.16,3.39,3.39,0,0,0-2.31,1.14,11.4,11.4,0,0,0-2.81,4.53,14.83,14.83,0,0,0-.82,2.35l-1.09-.33c.23-.49.82-2,3.32-8.55,2.26-5.94,2.75-7.26,2.87-7.87Z"/><path d="M334.12,21a23.56,23.56,0,0,0,3.28-.39l1.49-.19a28.47,28.47,0,0,0,.65-4.52,1.29,1.29,0,0,0,0-.25l1.2.13a3.62,3.62,0,0,0-.19.77c-.06.32-.13.57-.15.8s-.17,1-.36,2a5.39,5.39,0,0,1-.18.94c.77-.06,1.19-.08,1.7-.08a3.68,3.68,0,0,1,2.52.78c.73.63,1,1.53,1,3.25,0,3.15-.5,5.84-1.34,7a2,2,0,0,1-1.85,1,8.44,8.44,0,0,1-3.15-.92,2.38,2.38,0,0,0,.07-.68v-.35a7.37,7.37,0,0,0,3.13,1c.56,0,1-.38,1.32-1.18a17.28,17.28,0,0,0,.88-6c0-2.31-.69-3.06-2.81-3.06a13.15,13.15,0,0,0-1.64.1,38,38,0,0,1-3.32,9.09c-.23.47-.67,1.24-1.32,2.34l-.95-.61a20.63,20.63,0,0,0,2.21-3.72,35.25,35.25,0,0,0,2.41-7l-1.38.21a21.6,21.6,0,0,0-3.05.58Zm13.38-1.86a18.3,18.3,0,0,1,4.41,7.07l-.84.57a16.82,16.82,0,0,0-4.35-7.16Z"/><path d="M358.78,28.65a10.62,10.62,0,0,0,.08-1.43A4.09,4.09,0,0,1,360,24.38a8.36,8.36,0,0,1,1.45-1.15,6.2,6.2,0,0,0,1.83-1.62,2.84,2.84,0,0,0,.46-1.64,2.66,2.66,0,0,0-.82-1.78A3.94,3.94,0,0,0,360,17.14a4.09,4.09,0,0,0-3.4,1.45,4.64,4.64,0,0,0-.84,1.85l-1.16-.26a5.46,5.46,0,0,1,1-2.14A5.32,5.32,0,0,1,360,16.22c2.85,0,4.83,1.59,4.83,3.9a3.6,3.6,0,0,1-1.16,2.67,8.7,8.7,0,0,1-1.24,1,6.46,6.46,0,0,0-1.85,1.6,3.29,3.29,0,0,0-.58,2,10.53,10.53,0,0,0,.08,1.31Zm1.43,2.07v1.54h-1.56V30.72Z"/><path d="M374.4,28.65a10.54,10.54,0,0,0,.09-1.43,4,4,0,0,1,1.11-2.84,8,8,0,0,1,1.45-1.15,6.12,6.12,0,0,0,1.82-1.62,2.84,2.84,0,0,0,.47-1.64,2.71,2.71,0,0,0-.82-1.78,4,4,0,0,0-2.88-1.05,4.1,4.1,0,0,0-3.4,1.45,4.64,4.64,0,0,0-.84,1.85l-1.15-.26a5,5,0,0,1,5.37-4c2.86,0,4.83,1.59,4.83,3.9a3.6,3.6,0,0,1-1.16,2.67,9,9,0,0,1-1.23,1,6.31,6.31,0,0,0-1.85,1.6,3.3,3.3,0,0,0-.59,2,10.53,10.53,0,0,0,.08,1.31Zm1.43,2.07v1.54h-1.55V30.72Z"/><path d="M222.57,38.19a7.22,7.22,0,0,0,0,1v3.23a7,7,0,0,0,0,1h-1a8.5,8.5,0,0,0,0-1V39.19a8.28,8.28,0,0,0,0-1Zm5.31,0a6,6,0,0,0-.06,1v1.42a13.28,13.28,0,0,1-.3,3.65A4.54,4.54,0,0,1,225.25,47a9.85,9.85,0,0,1-2.19.86,2.24,2.24,0,0,0-.5-.83,7.1,7.1,0,0,0,2.28-.81,3.61,3.61,0,0,0,1.92-2.53,15.37,15.37,0,0,0,.16-3.06V39.24a7.88,7.88,0,0,0,0-1.05Z"/><path d="M231.73,42.83a10.46,10.46,0,0,0-1.38.06V42a8.4,8.4,0,0,0,1.39.07h2.45V39.54h-1.78a9.44,9.44,0,0,0-1.37.06v-.91a6.89,6.89,0,0,0,1.38.08h5.52a6.83,6.83,0,0,0,1.39-.08v.91a9.43,9.43,0,0,0-1.38-.06h-2.9v2.52h3.65a8.55,8.55,0,0,0,1.39-.07v.9a10.55,10.55,0,0,0-1.38-.06h-3.66v2.36c0,.76,0,1,.3,1.12a3.35,3.35,0,0,0,1.56.24c.45,0,1.11,0,1.79-.1a4.18,4.18,0,0,0,1-.18v.94a.42.42,0,0,0-.14,0,8.23,8.23,0,0,0-.9.08c-.45,0-1.31.07-1.86.07-2.13,0-2.65-.37-2.65-1.87V42.83Z"/><path d="M242,42.35a8.64,8.64,0,0,0,1.49.07h7a9.14,9.14,0,0,0,1.45-.06v1c-.38,0-.66,0-1.46,0h-7a14.86,14.86,0,0,0-1.49,0Z"/><path d="M255.16,47.82a7.32,7.32,0,0,0,.08-1.26V39.11a6.63,6.63,0,0,0-.08-1.22h1a8.46,8.46,0,0,0-.06,1.24v2.25a29.81,29.81,0,0,1,5.34,2.53l-.51.89a24.4,24.4,0,0,0-4.48-2.38,1.39,1.39,0,0,1-.37-.2h0a5,5,0,0,1,0,.71v3.61a9.35,9.35,0,0,0,.06,1.27Z"/><path d="M263.08,39.51h.44l.68,0c.67,0,.74-.06,2.22-.14l1.88-.12c1.48-.09,1.63-.1,2-.11l.68,0a9.49,9.49,0,0,0,1.43-.13l.07.88a5,5,0,0,0-1.34.17,5.91,5.91,0,0,0-2.3,1.2A3.66,3.66,0,0,0,267.39,44a2.35,2.35,0,0,0,1.68,2.22,6,6,0,0,0,1.8.38H271l-.16,1-.37-.07a5.94,5.94,0,0,1-2.59-.92,2.91,2.91,0,0,1-1.33-2.45,4.55,4.55,0,0,1,2.24-3.68,8.73,8.73,0,0,1,1.14-.64,25.74,25.74,0,0,1-2.64.27c-2.38.17-3.7.29-4.13.39Zm8,1.78a9.08,9.08,0,0,1,1.23,1.86l-.61.36a8.53,8.53,0,0,0-1.22-1.9Zm1.35-.66a10.12,10.12,0,0,1,1.24,1.87l-.6.34A9.69,9.69,0,0,0,271.88,41Z"/><path d="M274.7,42.6a7.94,7.94,0,0,0,2.15.48c.06-.59.18-1.52.27-2.16a14.76,14.76,0,0,1-1.78-.32l-.38-.09.11-.79a7.56,7.56,0,0,0,2.16.47,19.48,19.48,0,0,0,.29-2.25v-.1l1,.11a5.61,5.61,0,0,0-.19.8c0,.11,0,.11-.12.77,0,.26-.06.38-.12.72h.69a9.93,9.93,0,0,0,2.2-.2l0,.82-.84.08c-.37,0-.73,0-1.08,0l-1.05,0c-.19,1.38-.21,1.5-.28,2.17h.79a10.51,10.51,0,0,0,2.21-.19l0,.8-.33,0a14.2,14.2,0,0,1-1.69.09l-1,0c0,.08,0,.08,0,.24s-.05.68-.05.89a1.78,1.78,0,0,0,.55,1.44,2.56,2.56,0,0,0,1.69.51c1.61,0,2.65-.82,2.65-2.1a2.72,2.72,0,0,0-1.14-2.08,2.55,2.55,0,0,0,.88-.24,3.2,3.2,0,0,1,1.13,2.38c0,1.69-1.42,2.83-3.52,2.83a3,3,0,0,1-2.68-1.2,3.22,3.22,0,0,1-.38-1.65,7.79,7.79,0,0,1,.05-.79,1.6,1.6,0,0,1,0-.29,12.78,12.78,0,0,1-1.82-.3,1.13,1.13,0,0,0-.37-.07Z"/><path d="M285.2,40.66A10.61,10.61,0,0,1,287.41,42l-.42.69a9.5,9.5,0,0,0-2.21-1.48Zm2.33,3.87a22.73,22.73,0,0,1-2,3.58l-.69-.63a3.11,3.11,0,0,0,.38-.41,12.16,12.16,0,0,0,1.69-3Zm-1.8-6.89a14.34,14.34,0,0,1,2.06,1.59l-.47.64a12,12,0,0,0-2.08-1.68Zm5.54,1.51a26.46,26.46,0,0,1-2.75.3,2.3,2.3,0,0,0-.31-.74,21.69,21.69,0,0,0,5.08-.68,5.68,5.68,0,0,0,1.37-.48l.56.72-.4.11c-.7.2-1.63.42-2.78.63v2.08h2.34A8,8,0,0,0,295.6,41v.85a8.54,8.54,0,0,0-1.22-.07H292v2H294a6.45,6.45,0,0,0,.92-.05,7.17,7.17,0,0,0-.05,1.09v2.28a10.52,10.52,0,0,0,.06,1.16h-.81v-.68h-4.65v.68h-.81a7.65,7.65,0,0,0,.06-1.17V44.84a8.21,8.21,0,0,0-.05-1.05,6.63,6.63,0,0,0,.88.05h1.76v-2H289a8.67,8.67,0,0,0-1.21.07V41a7.86,7.86,0,0,0,1.21.07h2.28Zm-1.84,7.78h4.65V44.52h-4.65Z"/><path d="M299.62,38.81c-.86.12-1.3.16-2.21.23a1.68,1.68,0,0,0-.3-.64,15.45,15.45,0,0,0,5-.82l.52.61-.59.14a17,17,0,0,1-1.72.37v.95h1.44a5.21,5.21,0,0,0,1.05-.06v.72a4.79,4.79,0,0,0-1-.05h-1.53V41h1.25c.47,0,.76,0,1.05,0a7.09,7.09,0,0,0-.05,1.06v1.39a9.2,9.2,0,0,0,.05,1.14,10.53,10.53,0,0,0-1.1,0h-1.2v.8h1.21a8.63,8.63,0,0,0,1.09,0V46a5.45,5.45,0,0,0-1,0h-1.32v.86c.77-.1,1.18-.16,2.23-.34v.64c-1.68.29-2.88.44-4.92.65a6.31,6.31,0,0,0-.63.09l-.16-.82.51,0c.37,0,1,0,2.27-.17V46h-1.33a9.43,9.43,0,0,0-1.09.06v-.75a6.4,6.4,0,0,0,1.1.06h1.32v-.8h-1.14a10.74,10.74,0,0,0-1.11,0c0-.27,0-.53,0-1.13V42a7.29,7.29,0,0,0,0-1.06c.31,0,.63,0,1.14,0h1.11v-.75H298a6.42,6.42,0,0,0-1.08.06v-.74a6.71,6.71,0,0,0,1.09.07h1.62Zm-1.53,2.77v.88h1.53v-.88Zm0,1.43v.93h1.53V43Zm2.23-.55h1.58v-.88h-1.58Zm0,1.48h1.58V43h-1.58Zm6-3.73a10.63,10.63,0,0,0,1.07,0c0,.26,0,.5-.06,1.26-.09,3.62-.24,5.31-.57,6.09-.17.43-.49.59-1.15.59a12.09,12.09,0,0,1-1.27-.1,3.26,3.26,0,0,0-.13-.8,6.48,6.48,0,0,0,1.29.16c.45,0,.58-.08.66-.44a30,30,0,0,0,.43-6h-1.47a18.65,18.65,0,0,1-.49,3.85,8.29,8.29,0,0,1-1.89,3.53,2.53,2.53,0,0,0-.68-.52,6.29,6.29,0,0,0,1.39-1.94,12.75,12.75,0,0,0,.93-4.92h-.32A7,7,0,0,0,303,41v-.82a6.09,6.09,0,0,0,1.07.06h.39c0-.4,0-.75,0-1.2a6.63,6.63,0,0,0-.07-1.37h.89a3.57,3.57,0,0,0-.07.91c0,.85,0,1.26,0,1.66Z"/><path d="M313.54,38.69a7,7,0,0,0-.08-1.25h1a7.2,7.2,0,0,0-.09,1.23v1h3.52a5.83,5.83,0,0,0,.91,0,5.63,5.63,0,0,0-.06.95V43.9a7.26,7.26,0,0,0,.07,1.06h-.86v-.81h-3.58v2.79a6.79,6.79,0,0,0,.09,1.37h-1a8.37,8.37,0,0,0,.08-1.37V44.15h-3.38V45h-.86a7.17,7.17,0,0,0,.07-1.06V40.62a7,7,0,0,0-.06-.95,6,6,0,0,0,.9,0h3.33Zm-3.38,1.75v3h3.38v-3Zm7.75,3v-3h-3.58v3Z"/><path d="M323.05,45.2c0-.37,0-.45,0-.85v-.43L323,39.65c0-.5,0-.86-.07-1.32h1.19c0,.46-.06.82-.07,1.32l-.1,4.27c0,.5,0,.5,0,.55,0,.22,0,.43,0,.73Zm-.13,2.25V46.32h1.16v1.13Z"/><path d="M330.46,45.2a7.77,7.77,0,0,0,0-.85v-.43l-.11-4.27c0-.5,0-.86-.07-1.32h1.18c0,.46-.06.82-.07,1.32l-.09,4.27c0,.5,0,.5,0,.55,0,.22,0,.43,0,.73Zm-.13,2.25V46.32h1.16v1.13Z"/></svg>