<svg id="レイヤー_1" data-name="レイヤー 1" xmlns="http://www.w3.org/2000/svg" viewBox="0 0 337 60"><defs><style>.cls-1{fill:#fff;}</style></defs><path class="cls-1" d="M69.9,59.94a3.11,3.11,0,0,1-3-3.1,3,3,0,0,1,3-3H325.82c3,0,4.87-4.19,4.87-6.71S328.8,40,325.82,40H314.23c-8.2,0-10.89-8.26-10.89-14.16s4.3-12.83,10.89-12.83H333.1a3,3,0,0,1,0,6.08H314.35c-3,0-4.88,3-4.88,7.11,0,2.72,1.17,7.72,4.88,7.72h11.81c6.37,0,10.84,4.9,10.84,14.3,0,5.9-4.47,11.68-11.07,11.68Z"/><path class="cls-1" d="M3.08,6.09A3.19,3.19,0,0,0-.08,9.25V40.33a3.18,3.18,0,0,0,3.16,3.15,3.18,3.18,0,0,0,3.15-3.15V9.25A3.18,3.18,0,0,0,3.08,6.09Z"/><path class="cls-1" d="M47.81,6.09a3.19,3.19,0,0,0-3.16,3.16V32.7a4.88,4.88,0,1,1-9.75,0V17A10.86,10.86,0,0,0,23.72,5.8,10.86,10.86,0,0,0,12.54,17V40.33a3.16,3.16,0,0,0,6.31,0V16.87a4.88,4.88,0,1,1,9.75,0V32.53A10.86,10.86,0,0,0,39.78,43.77,10.86,10.86,0,0,0,51,32.53V9.25A3.18,3.18,0,0,0,47.81,6.09Z"/><path class="cls-1" d="M60.42,6.09a3.18,3.18,0,0,0-3.15,3.16V40.33a3.15,3.15,0,0,0,6.3,0V9.25A3.18,3.18,0,0,0,60.42,6.09Z"/><path class="cls-1" d="M89.72,6.55H83.87a13.71,13.71,0,0,0-14,13.94V40.33a3.16,3.16,0,0,0,6.31,0V20.49a7.72,7.72,0,0,1,7.68-7.86h5.85a7.72,7.72,0,0,1,7.69,7.86v3H81.52a3,3,0,0,0,0,6.08H97.41V40.33a3.15,3.15,0,1,0,6.3,0V20.49A13.71,13.71,0,0,0,89.72,6.55Z"/><path class="cls-1" d="M193.85,6.55h-30a3,3,0,0,0,0,6.08h11.88v27.7a3.15,3.15,0,1,0,6.3,0V12.63h11.87a3,3,0,0,0,0-6.08Z"/><path class="cls-1" d="M203.66,0A3.79,3.79,0,1,0,207.5,3.8,3.8,3.8,0,0,0,203.66,0Z"/><path class="cls-1" d="M203.66,12.17a3.09,3.09,0,0,0-3.1,3.1V40.38a3.1,3.1,0,1,0,6.19,0V15.27A3.08,3.08,0,0,0,203.66,12.17Z"/><path class="cls-1" d="M247.35,12.63H216a3.09,3.09,0,0,0-3.1,3.1V40.38a3.1,3.1,0,1,0,6.2,0V18.71h13.93V40.38a3.1,3.1,0,0,0,6.2,0V18.71h8.08a6,6,0,0,1,6,6V40.38a3.1,3.1,0,1,0,6.19,0V24.79A12.17,12.17,0,0,0,247.35,12.63Z"/><path class="cls-1" d="M292.54,36.94H279a7.8,7.8,0,0,1-8.09-8.08V26.79A7.8,7.8,0,0,1,279,18.71h8.43a3.17,3.17,0,0,1,3.44,3,3.17,3.17,0,0,1-3.44,3h-9.24a3,3,0,1,0,0,6.08h9.24c5.79,0,9.63-4.08,9.63-9.12s-3.84-9.12-9.63-9.12h-8.49c-8.37,0-14.22,6.08-14.22,14.16v2.07c0,8.08,5.85,14.16,14.22,14.16h13.65a3,3,0,0,0,0-6.08Z"/><path class="cls-1" d="M129.9,6.55H113.17A3.18,3.18,0,0,0,110,9.7V25.47L137.6,8.4A16.68,16.68,0,0,0,129.9,6.55Z"/><path class="cls-1" d="M110,39.87A3.18,3.18,0,0,0,113.17,43H129.9a16.79,16.79,0,0,0,6.55-1.31L110,26.54Z"/><path class="cls-1" d="M144.4,22.23c0-3.34-3.58-10-6.41-11.35L133,14a18.83,18.83,0,0,1,4,11.54,19.32,19.32,0,0,1-4,11.52l5.21,3c2.85-1.37,6.22-6.83,6.22-11.7Z"/><path class="cls-1" d="M113.64,26l9.17,5.26c.57-.63,1.5-2.16,1.5-5.35a8.89,8.89,0,0,0-1.55-5.56Z"/><path class="cls-1" d="M131,15.22l-6.26,3.87a11.28,11.28,0,0,1,1.9,6.77c0,3.4-.93,5.4-1.78,6.52l6.1,3.5a17.16,17.16,0,0,0,3.73-10.35A16.66,16.66,0,0,0,131,15.22Z"/></svg>