<svg id="レイヤー_1" data-name="レイヤー 1" xmlns="http://www.w3.org/2000/svg" viewBox="0 0 60 60"><defs><style>.cls-1{fill:#fff;}</style></defs><path class="cls-1" d="M9.59,30.13V12.54a3.16,3.16,0,0,1,1-2.46,4,4,0,0,1,2.86-1.2l19.71.06A16.35,16.35,0,0,1,35,9.07a12.26,12.26,0,0,1,2.07.42c1.26.4,3.55,1.44,3.55,1.44Z"/><path class="cls-1" d="M9.58,32.62V47.47a3.9,3.9,0,0,0,1.26,2.77,4.22,4.22,0,0,0,1.72.88H33.15s1.83-.23,2.46-.35a20.76,20.76,0,0,0,2.4-.62c.54-.17,1.26-.48,1.26-.48Z"/><path class="cls-1" d="M12.88,31.33l10.45-6.46s1.76,1.77,1.76,6.46c0,4.36-1.68,6.05-1.68,6.05Z"/><path class="cls-1" d="M25.66,23.4,32.88,19a16.61,16.61,0,0,1,2.6,4.13,20.55,20.55,0,0,1,1.66,8.22,18.39,18.39,0,0,1-1.89,7.55,30.51,30.51,0,0,1-2.37,3.88l-7.22-4s2.27-2.05,2.27-7.41S25.66,23.4,25.66,23.4Z"/><path class="cls-1" d="M35.22,17.51l7.9-4.86s7.3,6,7.3,18.68c0,9.4-8.11,17-8.11,17l-7.09-4.15s4.66-5.67,4.66-12.88A21.6,21.6,0,0,0,35.22,17.51Z"/></svg>