<svg id="レイヤー_1" data-name="レイヤー 1" xmlns="http://www.w3.org/2000/svg" viewBox="0 0 337 60"><defs><style>.cls-1{fill:#fff;}</style></defs><path class="cls-1" d="M4.05,47.79a3,3,0,0,1-2.94-3,2.92,2.92,0,0,1,2.94-2.89h18.2A4.38,4.38,0,0,0,27,37.53a4.43,4.43,0,0,0-4.72-4.44H11C4.66,33.09.33,28.54.33,22.83S4.66,12.51,11,12.51H29.3a2.94,2.94,0,1,1,0,5.88H11.15a4.42,4.42,0,1,0,0,8.82H22.58A10.17,10.17,0,0,1,33.07,37.53c0,5.71-4.33,10.26-10.71,10.26Z"/><path class="cls-1" d="M52.93,47.79A10.39,10.39,0,0,1,42.55,37.42V24.27h-4a2.94,2.94,0,1,1,0-5.88h4V12.51a3,3,0,1,1,6,0v5.88H58.7a2.94,2.94,0,0,1,0,5.88H48.54v13.2A4.35,4.35,0,0,0,53,41.91H58.7a2.94,2.94,0,0,1,0,5.88Z"/><path class="cls-1" d="M73.51,47.79a8.9,8.9,0,0,1-9.1-9.1,8.9,8.9,0,0,1,9.1-9.1h8.93a2.95,2.95,0,0,1,0,5.89H73.51a3.22,3.22,0,0,0,0,6.43H87.6V29.48a5,5,0,0,0-5.1-5.21H69.74a2.94,2.94,0,1,1,0-5.88H82.5a11,11,0,0,1,11.09,11V44.8a2.82,2.82,0,0,1-3,3Z"/><path class="cls-1" d="M127.88,24.27H110.12v21a3,3,0,1,1-6,0v-21h-4a2.94,2.94,0,1,1,0-5.88h4v-2c0-5.49,4.05-9.76,10-9.76h8.66a2.94,2.94,0,0,1,0,5.88h-8.66a3.76,3.76,0,0,0-4,3.83v2.05h17.76v-2c0-5.49,4.05-9.76,10-9.76h8.65a2.94,2.94,0,0,1,0,5.88h-8.65a3.76,3.76,0,0,0-4,3.83v2.05h12.7a2.94,2.94,0,0,1,0,5.88h-12.7v21a3,3,0,1,1-6,0Z"/><path class="cls-1" d="M171.65,36v9.15a3.06,3.06,0,1,1-6.11,0V15.56a3.08,3.08,0,0,1,3.05-3.05h16.93a10.89,10.89,0,0,1,11.31,11.2v1.11A10.9,10.9,0,0,1,185.52,36Zm19.08-12.32a5.11,5.11,0,0,0-5.27-5.32H171.65V30.15h13.81a5.11,5.11,0,0,0,5.27-5.33Z"/><path class="cls-1" d="M214,47.79a13.27,13.27,0,0,1-13.76-13.7v-2A13.27,13.27,0,0,1,214,18.39h5.43a13.27,13.27,0,0,1,13.76,13.7v2a13.27,13.27,0,0,1-13.76,13.7Zm13.2-15.7a7.54,7.54,0,0,0-7.82-7.82H214a7.54,7.54,0,0,0-7.82,7.82v2A7.54,7.54,0,0,0,214,41.91h5.33a7.54,7.54,0,0,0,7.82-7.82Z"/><path class="cls-1" d="M264.85,30.59a3,3,0,0,1-6,.06V29.54a5.14,5.14,0,0,0-5.28-5.27h-9.43v21a3,3,0,1,1-6,0V21.38a3,3,0,0,1,3-3h12.42a11.18,11.18,0,0,1,11.27,11.15Z"/><path class="cls-1" d="M284.15,47.79a10.39,10.39,0,0,1-10.37-10.37V24.27h-4a2.94,2.94,0,1,1,0-5.88h4V12.51a3,3,0,1,1,6,0v5.88h10.15a2.94,2.94,0,0,1,0,5.88H279.77v13.2a4.35,4.35,0,0,0,4.44,4.44h5.71a2.94,2.94,0,0,1,0,5.88Z"/><path class="cls-1" d="M304.73,47.79a8.9,8.9,0,0,1-9.1-9.1,8.9,8.9,0,0,1,9.1-9.1h8.94a2.95,2.95,0,0,1,0,5.89h-8.94a3.22,3.22,0,0,0,0,6.43h14.1V29.48a5,5,0,0,0-5.11-5.21H301a2.94,2.94,0,1,1,0-5.88h12.76a11,11,0,0,1,11.1,11V44.8a2.82,2.82,0,0,1-3,3Z"/><path class="cls-1" d="M330.81,9.18a3,3,0,1,1,6,0V45.24a3,3,0,1,1-6,0Z"/></svg>